<svg id="visual" viewBox="0 0 900 600" width="900" height="600" xmlns="http://www.w3.org/2000/svg" xmlns:xlink="http://www.w3.org/1999/xlink" version="1.1"><rect x="0" y="0" width="900" height="600" fill="#0c0021"></rect><defs><linearGradient id="grad1_0" x1="33.3%" y1="0%" x2="100%" y2="100%"><stop offset="20%" stop-color="#3c8efa" stop-opacity="1"></stop><stop offset="80%" stop-color="#3c8efa" stop-opacity="1"></stop></linearGradient></defs><defs><linearGradient id="grad1_1" x1="33.3%" y1="0%" x2="100%" y2="100%"><stop offset="20%" stop-color="#3c8efa" stop-opacity="1"></stop><stop offset="80%" stop-color="#3f6fc9" stop-opacity="1"></stop></linearGradient></defs><defs><linearGradient id="grad1_2" x1="33.3%" y1="0%" x2="100%" y2="100%"><stop offset="20%" stop-color="#39519a" stop-opacity="1"></stop><stop offset="80%" stop-color="#3f6fc9" stop-opacity="1"></stop></linearGradient></defs><defs><linearGradient id="grad1_3" x1="33.3%" y1="0%" x2="100%" y2="100%"><stop offset="20%" stop-color="#39519a" stop-opacity="1"></stop><stop offset="80%" stop-color="#2c366e" stop-opacity="1"></stop></linearGradient></defs><defs><linearGradient id="grad1_4" x1="33.3%" y1="0%" x2="100%" y2="100%"><stop offset="20%" stop-color="#1c1e45" stop-opacity="1"></stop><stop offset="80%" stop-color="#2c366e" stop-opacity="1"></stop></linearGradient></defs><defs><linearGradient id="grad1_5" x1="33.3%" y1="0%" x2="100%" y2="100%"><stop offset="20%" stop-color="#1c1e45" stop-opacity="1"></stop><stop offset="80%" stop-color="#0c0021" stop-opacity="1"></stop></linearGradient></defs><defs><linearGradient id="grad2_0" x1="0%" y1="0%" x2="66.7%" y2="100%"><stop offset="20%" stop-color="#3c8efa" stop-opacity="1"></stop><stop offset="80%" stop-color="#3c8efa" stop-opacity="1"></stop></linearGradient></defs><defs><linearGradient id="grad2_1" x1="0%" y1="0%" x2="66.7%" y2="100%"><stop offset="20%" stop-color="#3f6fc9" stop-opacity="1"></stop><stop offset="80%" stop-color="#3c8efa" stop-opacity="1"></stop></linearGradient></defs><defs><linearGradient id="grad2_2" x1="0%" y1="0%" x2="66.7%" y2="100%"><stop offset="20%" stop-color="#3f6fc9" stop-opacity="1"></stop><stop offset="80%" stop-color="#39519a" stop-opacity="1"></stop></linearGradient></defs><defs><linearGradient id="grad2_3" x1="0%" y1="0%" x2="66.7%" y2="100%"><stop offset="20%" stop-color="#2c366e" stop-opacity="1"></stop><stop offset="80%" stop-color="#39519a" stop-opacity="1"></stop></linearGradient></defs><defs><linearGradient id="grad2_4" x1="0%" y1="0%" x2="66.7%" y2="100%"><stop offset="20%" stop-color="#2c366e" stop-opacity="1"></stop><stop offset="80%" stop-color="#1c1e45" stop-opacity="1"></stop></linearGradient></defs><defs><linearGradient id="grad2_5" x1="0%" y1="0%" x2="66.7%" y2="100%"><stop offset="20%" stop-color="#0c0021" stop-opacity="1"></stop><stop offset="80%" stop-color="#1c1e45" stop-opacity="1"></stop></linearGradient></defs><g transform="translate(900, 0)"><path d="M0 459.7C-83.8 449.7 -167.7 439.6 -229.9 398.1C-292 356.6 -332.5 283.6 -367.2 212C-401.9 140.4 -430.8 70.2 -459.7 0L0 0Z" fill="#141232"></path><path d="M0 383.1C-69.9 374.7 -139.7 366.4 -191.5 331.8C-243.3 297.2 -277.1 236.3 -306 176.7C-334.9 117 -359 58.5 -383.1 0L0 0Z" fill="#252a59"></path><path d="M0 306.5C-55.9 299.8 -111.8 293.1 -153.2 265.4C-194.7 237.7 -221.7 189.1 -244.8 141.3C-267.9 93.6 -287.2 46.8 -306.5 0L0 0Z" fill="#334384"></path><path d="M0 229.9C-41.9 224.8 -83.8 219.8 -114.9 199.1C-146 178.3 -166.2 141.8 -183.6 106C-200.9 70.2 -215.4 35.1 -229.9 0L0 0Z" fill="#3d60b1"></path><path d="M0 153.2C-27.9 149.9 -55.9 146.5 -76.6 132.7C-97.3 118.9 -110.8 94.5 -122.4 70.7C-134 46.8 -143.6 23.4 -153.2 0L0 0Z" fill="#3f7ee1"></path><path d="M0 76.6C-14 74.9 -27.9 73.3 -38.3 66.4C-48.7 59.4 -55.4 47.3 -61.2 35.3C-67 23.4 -71.8 11.7 -76.6 0L0 0Z" fill="#3c8efa"></path></g><g transform="translate(0, 600)"><path d="M0 -459.7C89 -452.7 178.1 -445.6 229.9 -398.1C281.6 -350.6 296.1 -262.6 328.2 -189.5C360.3 -116.4 410 -58.2 459.7 0L0 0Z" fill="#141232"></path><path d="M0 -383.1C74.2 -377.2 148.4 -371.4 191.5 -331.8C234.7 -292.2 246.8 -218.8 273.5 -157.9C300.3 -97 341.7 -48.5 383.1 0L0 0Z" fill="#252a59"></path><path d="M0 -306.5C59.4 -301.8 118.7 -297.1 153.2 -265.4C187.8 -233.7 197.4 -175.1 218.8 -126.3C240.2 -77.6 273.3 -38.8 306.5 0L0 0Z" fill="#334384"></path><path d="M0 -229.9C44.5 -226.3 89 -222.8 114.9 -199.1C140.8 -175.3 148.1 -131.3 164.1 -94.8C180.2 -58.2 205 -29.1 229.9 0L0 0Z" fill="#3d60b1"></path><path d="M0 -153.2C29.7 -150.9 59.4 -148.5 76.6 -132.7C93.9 -116.9 98.7 -87.5 109.4 -63.2C120.1 -38.8 136.7 -19.4 153.2 0L0 0Z" fill="#3f7ee1"></path><path d="M0 -76.6C14.8 -75.4 29.7 -74.3 38.3 -66.4C46.9 -58.4 49.4 -43.8 54.7 -31.6C60.1 -19.4 68.3 -9.7 76.6 0L0 0Z" fill="#3c8efa"></path></g></svg>