<svg id="visual" viewBox="0 0 900 600" width="900" height="600" xmlns="http://www.w3.org/2000/svg" xmlns:xlink="http://www.w3.org/1999/xlink" version="1.1"><rect x="0" y="0" width="900" height="600" fill="#001220"></rect><defs><linearGradient id="grad1_0" x1="33.3%" y1="0%" x2="100%" y2="100%"><stop offset="20%" stop-color="#001220" stop-opacity="1"></stop><stop offset="80%" stop-color="#001220" stop-opacity="1"></stop></linearGradient></defs><defs><linearGradient id="grad2_0" x1="0%" y1="0%" x2="66.7%" y2="100%"><stop offset="20%" stop-color="#001220" stop-opacity="1"></stop><stop offset="80%" stop-color="#001220" stop-opacity="1"></stop></linearGradient></defs><g transform="translate(900, 0)"><path d="M0 486.7C-66.3 482.1 -132.7 477.4 -186.3 449.7C-239.9 422 -280.8 371.3 -325.3 325.3C-369.7 279.2 -417.8 237.9 -445.3 184.5C-472.8 131 -479.8 65.5 -486.7 0L0 0Z" fill="#d23f89"></path></g><g transform="translate(0, 600)"><path d="M0 -486.7C52.3 -442.3 104.7 -397.8 152.3 -367.7C200 -337.7 242.9 -322.1 297 -297C351.1 -271.9 416.2 -237.3 449.7 -186.3C483.2 -135.2 485 -67.6 486.7 0L0 0Z" fill="#d23f89"></path></g></svg>