<svg id="visual" viewBox="0 0 900 600" width="900" height="600" xmlns="http://www.w3.org/2000/svg" xmlns:xlink="http://www.w3.org/1999/xlink" version="1.1"><rect x="0" y="0" width="900" height="600" fill="#001220"></rect><path d="M0 378L25 377.2C50 376.3 100 374.7 150 369.5C200 364.3 250 355.7 300 352.5C350 349.3 400 351.7 450 347.7C500 343.7 550 333.3 600 336.8C650 340.3 700 357.7 750 364.2C800 370.7 850 366.3 875 364.2L900 362L900 601L875 601C850 601 800 601 750 601C700 601 650 601 600 601C550 601 500 601 450 601C400 601 350 601 300 601C250 601 200 601 150 601C100 601 50 601 25 601L0 601Z" fill="#fa7268"></path><path d="M0 421L25 418.3C50 415.7 100 410.3 150 413.7C200 417 250 429 300 427C350 425 400 409 450 401.2C500 393.3 550 393.7 600 392.8C650 392 700 390 750 389.2C800 388.3 850 388.7 875 388.8L900 389L900 601L875 601C850 601 800 601 750 601C700 601 650 601 600 601C550 601 500 601 450 601C400 601 350 601 300 601C250 601 200 601 150 601C100 601 50 601 25 601L0 601Z" fill="#eb5967"></path><path d="M0 475L25 470.8C50 466.7 100 458.3 150 458C200 457.7 250 465.3 300 465.3C350 465.3 400 457.7 450 459.7C500 461.7 550 473.3 600 481.5C650 489.7 700 494.3 750 486.5C800 478.7 850 458.3 875 448.2L900 438L900 601L875 601C850 601 800 601 750 601C700 601 650 601 600 601C550 601 500 601 450 601C400 601 350 601 300 601C250 601 200 601 150 601C100 601 50 601 25 601L0 601Z" fill="#da3f67"></path><path d="M0 503L25 503.3C50 503.7 100 504.3 150 507.3C200 510.3 250 515.7 300 519.7C350 523.7 400 526.3 450 530.5C500 534.7 550 540.3 600 536.3C650 532.3 700 518.7 750 512.7C800 506.7 850 508.3 875 509.2L900 510L900 601L875 601C850 601 800 601 750 601C700 601 650 601 600 601C550 601 500 601 450 601C400 601 350 601 300 601C250 601 200 601 150 601C100 601 50 601 25 601L0 601Z" fill="#c62368"></path></svg>